<mxfile host="" modified="2020-06-06T18:09:01.043Z" agent="5.0 (X11; Linux x86_64) AppleWebKit/537.36 (KHTML, like Gecko) Code/1.45.1 Chrome/78.0.3904.130 Electron/7.2.4 Safari/537.36" etag="gWgywAxMC-_4f_JzLAUF" version="13.1.3">
    <diagram id="6hGFLwfOUW9BJ-s0fimq" name="Page-1">
        <mxGraphModel dx="1281" dy="344" grid="1" gridSize="10" guides="1" tooltips="1" connect="1" arrows="1" fold="1" page="1" pageScale="1" pageWidth="827" pageHeight="1169" math="0" shadow="0">
            <root>
                <mxCell id="0"/>
                <mxCell id="1" parent="0"/>
                <mxCell id="164" value="" style="rounded=0;whiteSpace=wrap;html=1;strokeColor=none;strokeWidth=2;fillColor=#f5f5f5;fontSize=20;fontColor=#333333;" vertex="1" parent="1">
                    <mxGeometry x="-240" y="50" width="940" height="840" as="geometry"/>
                </mxCell>
                <mxCell id="18" value="" style="group;strokeColor=none;fontColor=#0F0F0F;strokeWidth=2;" vertex="1" connectable="0" parent="1">
                    <mxGeometry x="360" y="120" width="80" height="120" as="geometry"/>
                </mxCell>
                <mxCell id="16" style="edgeStyle=orthogonalEdgeStyle;rounded=0;orthogonalLoop=1;jettySize=auto;html=1;exitX=0.25;exitY=0;exitDx=0;exitDy=0;endArrow=none;endFill=0;fontSize=20;strokeColor=#000000;fontColor=#0F0F0F;strokeWidth=2;" edge="1" parent="18" source="4">
                    <mxGeometry relative="1" as="geometry">
                        <mxPoint x="20" as="targetPoint"/>
                    </mxGeometry>
                </mxCell>
                <mxCell id="17" style="edgeStyle=orthogonalEdgeStyle;rounded=0;orthogonalLoop=1;jettySize=auto;html=1;exitX=0.75;exitY=0;exitDx=0;exitDy=0;endArrow=none;endFill=0;fontSize=20;strokeColor=#000000;fontColor=#0F0F0F;strokeWidth=2;" edge="1" parent="18" source="4">
                    <mxGeometry relative="1" as="geometry">
                        <mxPoint x="60" as="targetPoint"/>
                    </mxGeometry>
                </mxCell>
                <mxCell id="4" value="PG&lt;sub&gt;1&lt;/sub&gt;" style="rounded=0;whiteSpace=wrap;html=1;fillColor=none;fontSize=20;strokeColor=#000000;fontColor=#0F0F0F;strokeWidth=2;" vertex="1" parent="18">
                    <mxGeometry y="40" width="80" height="40" as="geometry"/>
                </mxCell>
                <mxCell id="19" value="" style="group;fontColor=#0F0F0F;" vertex="1" connectable="0" parent="1">
                    <mxGeometry x="480" y="120" width="80" height="120" as="geometry"/>
                </mxCell>
                <mxCell id="11" style="edgeStyle=orthogonalEdgeStyle;rounded=0;orthogonalLoop=1;jettySize=auto;html=1;exitX=0.25;exitY=0;exitDx=0;exitDy=0;endArrow=none;endFill=0;fontSize=20;strokeColor=#0A0A0A;strokeWidth=2;fontColor=#0F0F0F;" edge="1" parent="19" source="2">
                    <mxGeometry relative="1" as="geometry">
                        <mxPoint x="20.111111111111086" as="targetPoint"/>
                        <Array as="points">
                            <mxPoint x="20" y="40"/>
                            <mxPoint x="20" y="40"/>
                        </Array>
                    </mxGeometry>
                </mxCell>
                <mxCell id="13" style="edgeStyle=orthogonalEdgeStyle;rounded=0;orthogonalLoop=1;jettySize=auto;html=1;exitX=0.5;exitY=0;exitDx=0;exitDy=0;endArrow=none;endFill=0;fontSize=20;strokeColor=#0A0A0A;strokeWidth=2;fontColor=#0F0F0F;" edge="1" parent="19" source="2">
                    <mxGeometry relative="1" as="geometry">
                        <mxPoint x="40.111111111111086" as="targetPoint"/>
                    </mxGeometry>
                </mxCell>
                <mxCell id="15" style="edgeStyle=orthogonalEdgeStyle;rounded=0;orthogonalLoop=1;jettySize=auto;html=1;exitX=0.75;exitY=0;exitDx=0;exitDy=0;endArrow=none;endFill=0;fontSize=20;strokeColor=#0A0A0A;strokeWidth=2;fontColor=#0F0F0F;" edge="1" parent="19" source="2">
                    <mxGeometry relative="1" as="geometry">
                        <mxPoint x="100" as="targetPoint"/>
                        <Array as="points">
                            <mxPoint x="60"/>
                        </Array>
                    </mxGeometry>
                </mxCell>
                <mxCell id="2" value="PG_IN" style="rounded=0;whiteSpace=wrap;html=1;fillColor=none;fontSize=20;strokeColor=#0A0A0A;strokeWidth=2;fontColor=#0F0F0F;" vertex="1" parent="19">
                    <mxGeometry y="40" width="80" height="40" as="geometry"/>
                </mxCell>
                <mxCell id="21" value="" style="group;strokeColor=none;fontColor=#0F0F0F;strokeWidth=2;" vertex="1" connectable="0" parent="1">
                    <mxGeometry x="240" y="120" width="80" height="120" as="geometry"/>
                </mxCell>
                <mxCell id="24" style="edgeStyle=orthogonalEdgeStyle;rounded=0;orthogonalLoop=1;jettySize=auto;html=1;exitX=0.25;exitY=0;exitDx=0;exitDy=0;endArrow=none;endFill=0;fontSize=20;strokeColor=#000000;fontColor=#0F0F0F;strokeWidth=2;" edge="1" parent="21" source="26">
                    <mxGeometry relative="1" as="geometry">
                        <mxPoint x="20" as="targetPoint"/>
                    </mxGeometry>
                </mxCell>
                <mxCell id="25" style="edgeStyle=orthogonalEdgeStyle;rounded=0;orthogonalLoop=1;jettySize=auto;html=1;exitX=0.75;exitY=0;exitDx=0;exitDy=0;endArrow=none;endFill=0;fontSize=20;strokeColor=#000000;fontColor=#0F0F0F;strokeWidth=2;" edge="1" parent="21" source="26">
                    <mxGeometry relative="1" as="geometry">
                        <mxPoint x="60" as="targetPoint"/>
                    </mxGeometry>
                </mxCell>
                <mxCell id="26" value="PG&lt;sub&gt;2&lt;/sub&gt;" style="rounded=0;whiteSpace=wrap;html=1;fillColor=none;fontSize=20;strokeColor=#000000;fontColor=#0F0F0F;strokeWidth=2;" vertex="1" parent="21">
                    <mxGeometry y="40" width="80" height="40" as="geometry"/>
                </mxCell>
                <mxCell id="27" value="" style="group;strokeColor=none;fontColor=#0F0F0F;strokeWidth=2;" vertex="1" connectable="0" parent="1">
                    <mxGeometry x="120" y="120" width="80" height="120" as="geometry"/>
                </mxCell>
                <mxCell id="30" style="edgeStyle=orthogonalEdgeStyle;rounded=0;orthogonalLoop=1;jettySize=auto;html=1;exitX=0.25;exitY=0;exitDx=0;exitDy=0;endArrow=none;endFill=0;fontSize=20;strokeColor=#000000;fontColor=#0F0F0F;strokeWidth=2;" edge="1" parent="27" source="32">
                    <mxGeometry relative="1" as="geometry">
                        <mxPoint x="20" as="targetPoint"/>
                    </mxGeometry>
                </mxCell>
                <mxCell id="31" style="edgeStyle=orthogonalEdgeStyle;rounded=0;orthogonalLoop=1;jettySize=auto;html=1;exitX=0.75;exitY=0;exitDx=0;exitDy=0;endArrow=none;endFill=0;fontSize=20;strokeColor=#000000;fontColor=#0F0F0F;strokeWidth=2;" edge="1" parent="27" source="32">
                    <mxGeometry relative="1" as="geometry">
                        <mxPoint x="60" as="targetPoint"/>
                    </mxGeometry>
                </mxCell>
                <mxCell id="32" value="PG&lt;span style=&quot;font-size: 16.6667px&quot;&gt;&lt;sub&gt;3&lt;/sub&gt;&lt;/span&gt;" style="rounded=0;whiteSpace=wrap;html=1;fillColor=none;fontSize=20;strokeColor=#000000;fontColor=#0F0F0F;strokeWidth=2;" vertex="1" parent="27">
                    <mxGeometry y="40" width="80" height="40" as="geometry"/>
                </mxCell>
                <mxCell id="61" style="edgeStyle=none;rounded=0;orthogonalLoop=1;jettySize=auto;html=1;exitX=0.336;exitY=0.981;exitDx=0;exitDy=0;endArrow=none;endFill=0;fontSize=20;exitPerimeter=0;strokeColor=#000000;fontColor=#0F0F0F;strokeWidth=2;" edge="1" parent="1" source="51" target="62">
                    <mxGeometry relative="1" as="geometry">
                        <mxPoint x="378.8571428571429" y="480" as="targetPoint"/>
                        <Array as="points">
                            <mxPoint x="390" y="370"/>
                            <mxPoint x="240" y="370"/>
                        </Array>
                    </mxGeometry>
                </mxCell>
                <mxCell id="65" style="edgeStyle=none;rounded=0;orthogonalLoop=1;jettySize=auto;html=1;exitX=0.669;exitY=0.992;exitDx=0;exitDy=0;entryX=1;entryY=0.5;entryDx=0;entryDy=0;endArrow=none;endFill=0;fontSize=20;exitPerimeter=0;strokeColor=#000000;fontColor=#0F0F0F;strokeWidth=2;" edge="1" parent="1" source="51" target="62">
                    <mxGeometry relative="1" as="geometry">
                        <Array as="points">
                            <mxPoint x="410" y="390"/>
                            <mxPoint x="250" y="390"/>
                        </Array>
                    </mxGeometry>
                </mxCell>
                <mxCell id="51" value="&amp;nbsp;N&lt;sub&gt;0&lt;/sub&gt;" style="ellipse;whiteSpace=wrap;html=1;aspect=fixed;fillColor=none;fontSize=20;strokeColor=#000000;fontColor=#0F0F0F;strokeWidth=2;" vertex="1" parent="1">
                    <mxGeometry x="370" y="280" width="60" height="60" as="geometry"/>
                </mxCell>
                <mxCell id="103" style="edgeStyle=none;rounded=0;orthogonalLoop=1;jettySize=auto;html=1;exitX=0.331;exitY=0.97;exitDx=0;exitDy=0;entryX=0.332;entryY=0.028;entryDx=0;entryDy=0;endArrow=none;endFill=0;fontSize=20;entryPerimeter=0;exitPerimeter=0;strokeColor=#000000;fontColor=#0F0F0F;strokeWidth=2;" edge="1" parent="1" source="52" target="62">
                    <mxGeometry relative="1" as="geometry"/>
                </mxCell>
                <mxCell id="104" style="edgeStyle=none;rounded=0;orthogonalLoop=1;jettySize=auto;html=1;exitX=0.665;exitY=0.97;exitDx=0;exitDy=0;entryX=0.666;entryY=0.028;entryDx=0;entryDy=0;endArrow=none;endFill=0;fontSize=20;entryPerimeter=0;exitPerimeter=0;strokeColor=#000000;fontColor=#0F0F0F;strokeWidth=2;" edge="1" parent="1" source="52" target="62">
                    <mxGeometry relative="1" as="geometry"/>
                </mxCell>
                <mxCell id="52" value="N&lt;sub&gt;1&lt;/sub&gt;" style="ellipse;whiteSpace=wrap;html=1;aspect=fixed;fillColor=none;fontSize=20;strokeColor=#000000;fontColor=#0F0F0F;strokeWidth=2;" vertex="1" parent="1">
                    <mxGeometry x="130" y="280" width="60" height="60" as="geometry"/>
                </mxCell>
                <mxCell id="83" style="edgeStyle=none;rounded=0;orthogonalLoop=1;jettySize=auto;html=1;entryX=0.335;entryY=0.042;entryDx=0;entryDy=0;endArrow=none;endFill=0;fontSize=20;entryPerimeter=0;exitX=0.328;exitY=0.967;exitDx=0;exitDy=0;exitPerimeter=0;strokeColor=#000000;fontColor=#0F0F0F;strokeWidth=2;" edge="1" parent="1" source="93" target="64">
                    <mxGeometry relative="1" as="geometry">
                        <mxPoint x="-89.90000000000009" y="338.02" as="sourcePoint"/>
                    </mxGeometry>
                </mxCell>
                <mxCell id="84" style="edgeStyle=none;rounded=0;orthogonalLoop=1;jettySize=auto;html=1;exitX=0.671;exitY=0.977;exitDx=0;exitDy=0;entryX=0.666;entryY=0.025;entryDx=0;entryDy=0;endArrow=none;endFill=0;fontSize=20;exitPerimeter=0;entryPerimeter=0;strokeColor=#000000;fontColor=#0F0F0F;strokeWidth=2;" edge="1" parent="1" target="64">
                    <mxGeometry relative="1" as="geometry">
                        <mxPoint x="-69.74000000000001" y="338.6199999999999" as="sourcePoint"/>
                    </mxGeometry>
                </mxCell>
                <mxCell id="5" style="edgeStyle=orthogonalEdgeStyle;rounded=0;orthogonalLoop=1;jettySize=auto;html=1;exitX=0.25;exitY=1;exitDx=0;exitDy=0;fontSize=20;endArrow=none;endFill=0;entryX=0.337;entryY=0.031;entryDx=0;entryDy=0;entryPerimeter=0;strokeColor=#000000;fontColor=#0F0F0F;strokeWidth=2;" edge="1" parent="1" source="4" target="51">
                    <mxGeometry relative="1" as="geometry">
                        <mxPoint x="380" y="240" as="targetPoint"/>
                        <Array as="points">
                            <mxPoint x="390" y="200"/>
                        </Array>
                    </mxGeometry>
                </mxCell>
                <mxCell id="6" style="edgeStyle=orthogonalEdgeStyle;rounded=0;orthogonalLoop=1;jettySize=auto;html=1;exitX=0.75;exitY=1;exitDx=0;exitDy=0;endArrow=none;endFill=0;fontSize=20;entryX=0.672;entryY=0.033;entryDx=0;entryDy=0;entryPerimeter=0;strokeColor=#000000;fontColor=#0F0F0F;strokeWidth=2;" edge="1" parent="1" source="4" target="51">
                    <mxGeometry relative="1" as="geometry">
                        <mxPoint x="420.1111111111111" y="240" as="targetPoint"/>
                        <Array as="points">
                            <mxPoint x="410" y="200"/>
                        </Array>
                    </mxGeometry>
                </mxCell>
                <mxCell id="28" style="edgeStyle=orthogonalEdgeStyle;rounded=0;orthogonalLoop=1;jettySize=auto;html=1;exitX=0.25;exitY=1;exitDx=0;exitDy=0;fontSize=20;endArrow=none;endFill=0;strokeColor=#000000;fontColor=#0F0F0F;strokeWidth=2;" edge="1" parent="1" source="32" target="52">
                    <mxGeometry relative="1" as="geometry">
                        <mxPoint x="140" y="240" as="targetPoint"/>
                        <Array as="points">
                            <mxPoint x="150" y="200"/>
                        </Array>
                    </mxGeometry>
                </mxCell>
                <mxCell id="29" style="edgeStyle=orthogonalEdgeStyle;rounded=0;orthogonalLoop=1;jettySize=auto;html=1;exitX=0.75;exitY=1;exitDx=0;exitDy=0;endArrow=none;endFill=0;fontSize=20;strokeColor=#000000;fontColor=#0F0F0F;strokeWidth=2;" edge="1" parent="1" source="32" target="52">
                    <mxGeometry relative="1" as="geometry">
                        <mxPoint x="180.1111111111111" y="240" as="targetPoint"/>
                        <Array as="points">
                            <mxPoint x="170" y="200"/>
                        </Array>
                    </mxGeometry>
                </mxCell>
                <mxCell id="22" style="rounded=0;orthogonalLoop=1;jettySize=auto;html=1;exitX=0.25;exitY=1;exitDx=0;exitDy=0;fontSize=20;endArrow=none;endFill=0;entryX=1;entryY=0;entryDx=0;entryDy=0;strokeColor=#000000;fontColor=#0F0F0F;strokeWidth=2;" edge="1" parent="1" source="26" target="52">
                    <mxGeometry relative="1" as="geometry">
                        <mxPoint x="260" y="240" as="targetPoint"/>
                        <Array as="points">
                            <mxPoint x="270" y="200"/>
                            <mxPoint x="270" y="230"/>
                        </Array>
                    </mxGeometry>
                </mxCell>
                <mxCell id="23" style="rounded=0;orthogonalLoop=1;jettySize=auto;html=1;exitX=0.624;exitY=1.032;exitDx=0;exitDy=0;endArrow=none;endFill=0;fontSize=20;entryX=1;entryY=0.5;entryDx=0;entryDy=0;exitPerimeter=0;strokeColor=#000000;fontColor=#0F0F0F;strokeWidth=2;" edge="1" parent="1" source="26" target="52">
                    <mxGeometry relative="1" as="geometry">
                        <mxPoint x="300.1111111111111" y="240" as="targetPoint"/>
                        <Array as="points">
                            <mxPoint x="290" y="240"/>
                        </Array>
                    </mxGeometry>
                </mxCell>
                <mxCell id="58" style="rounded=0;orthogonalLoop=1;jettySize=auto;html=1;exitX=0.25;exitY=1;exitDx=0;exitDy=0;fontSize=20;endArrow=none;endFill=0;entryX=1;entryY=0;entryDx=0;entryDy=0;strokeColor=#0A0A0A;strokeWidth=2;fontColor=#0F0F0F;" edge="1" parent="1" source="2" target="51">
                    <mxGeometry relative="1" as="geometry">
                        <mxPoint x="429.99677064087075" y="292.8531459673935" as="targetPoint"/>
                        <mxPoint x="505.38" y="200" as="sourcePoint"/>
                        <Array as="points">
                            <mxPoint x="510" y="200"/>
                            <mxPoint x="510" y="230"/>
                        </Array>
                    </mxGeometry>
                </mxCell>
                <mxCell id="59" style="rounded=0;orthogonalLoop=1;jettySize=auto;html=1;exitX=0.75;exitY=1;exitDx=0;exitDy=0;endArrow=none;endFill=0;fontSize=20;entryX=1;entryY=0.5;entryDx=0;entryDy=0;strokeColor=#0A0A0A;strokeWidth=2;fontColor=#0F0F0F;" edge="1" parent="1" source="2" target="51">
                    <mxGeometry relative="1" as="geometry">
                        <mxPoint x="435.38" y="310" as="targetPoint"/>
                        <mxPoint x="545.38" y="200" as="sourcePoint"/>
                        <Array as="points">
                            <mxPoint x="530" y="200"/>
                            <mxPoint x="530" y="240"/>
                        </Array>
                    </mxGeometry>
                </mxCell>
                <mxCell id="69" style="edgeStyle=none;rounded=0;orthogonalLoop=1;jettySize=auto;html=1;exitX=1;exitY=0;exitDx=0;exitDy=0;endArrow=none;endFill=0;fontSize=20;strokeColor=#000000;fontColor=#0F0F0F;strokeWidth=2;" edge="1" parent="1" source="60">
                    <mxGeometry relative="1" as="geometry">
                        <mxPoint x="360" y="370" as="targetPoint"/>
                    </mxGeometry>
                </mxCell>
                <mxCell id="70" style="edgeStyle=none;rounded=0;orthogonalLoop=1;jettySize=auto;html=1;exitX=1;exitY=0.5;exitDx=0;exitDy=0;endArrow=none;endFill=0;fontSize=20;strokeColor=#000000;fontColor=#0F0F0F;strokeWidth=2;" edge="1" parent="1" source="60">
                    <mxGeometry relative="1" as="geometry">
                        <mxPoint x="370" y="390" as="targetPoint"/>
                    </mxGeometry>
                </mxCell>
                <mxCell id="125" style="edgeStyle=none;rounded=0;orthogonalLoop=1;jettySize=auto;html=1;exitX=0.332;exitY=0.969;exitDx=0;exitDy=0;entryX=0;entryY=0.25;entryDx=0;entryDy=0;entryPerimeter=0;endArrow=none;endFill=0;strokeColor=#000000;strokeWidth=2;fontSize=20;fontColor=#0F0F0F;exitPerimeter=0;" edge="1" parent="1" source="60" target="117">
                    <mxGeometry relative="1" as="geometry"/>
                </mxCell>
                <mxCell id="126" style="edgeStyle=none;rounded=0;orthogonalLoop=1;jettySize=auto;html=1;exitX=0.678;exitY=0.974;exitDx=0;exitDy=0;endArrow=none;endFill=0;strokeColor=#000000;strokeWidth=2;fontSize=20;fontColor=#0F0F0F;exitPerimeter=0;" edge="1" parent="1" source="60">
                    <mxGeometry relative="1" as="geometry">
                        <mxPoint x="291" y="520" as="targetPoint"/>
                    </mxGeometry>
                </mxCell>
                <mxCell id="60" value="&amp;nbsp;N&lt;sub&gt;3&lt;/sub&gt;" style="ellipse;whiteSpace=wrap;html=1;aspect=fixed;fillColor=none;fontSize=20;strokeColor=#000000;fontColor=#0F0F0F;strokeWidth=2;" vertex="1" parent="1">
                    <mxGeometry x="250" y="420" width="60" height="60" as="geometry"/>
                </mxCell>
                <mxCell id="76" style="edgeStyle=none;rounded=0;orthogonalLoop=1;jettySize=auto;html=1;exitX=0.338;exitY=0.977;exitDx=0;exitDy=0;endArrow=none;endFill=0;fontSize=20;exitPerimeter=0;entryX=1;entryY=0;entryDx=0;entryDy=0;strokeColor=#000000;fontColor=#0F0F0F;strokeWidth=2;" edge="1" parent="1" source="62" target="64">
                    <mxGeometry relative="1" as="geometry">
                        <Array as="points">
                            <mxPoint x="150" y="510"/>
                            <mxPoint y="510"/>
                        </Array>
                    </mxGeometry>
                </mxCell>
                <mxCell id="77" style="edgeStyle=none;rounded=0;orthogonalLoop=1;jettySize=auto;html=1;exitX=0.667;exitY=0.968;exitDx=0;exitDy=0;entryX=1;entryY=0.5;entryDx=0;entryDy=0;endArrow=none;endFill=0;fontSize=20;exitPerimeter=0;strokeColor=#000000;fontColor=#0F0F0F;strokeWidth=2;" edge="1" parent="1" source="62" target="64">
                    <mxGeometry relative="1" as="geometry">
                        <Array as="points">
                            <mxPoint x="170" y="529"/>
                            <mxPoint x="10" y="530"/>
                        </Array>
                    </mxGeometry>
                </mxCell>
                <mxCell id="62" value="&amp;nbsp;N&lt;sub&gt;4&lt;/sub&gt;" style="ellipse;whiteSpace=wrap;html=1;aspect=fixed;fillColor=none;fontSize=20;strokeColor=#000000;fontColor=#0F0F0F;strokeWidth=2;" vertex="1" parent="1">
                    <mxGeometry x="130" y="420" width="60" height="60" as="geometry"/>
                </mxCell>
                <mxCell id="78" style="edgeStyle=none;rounded=0;orthogonalLoop=1;jettySize=auto;html=1;exitX=1;exitY=0;exitDx=0;exitDy=0;endArrow=none;endFill=0;fontSize=20;strokeColor=#000000;fontColor=#0F0F0F;strokeWidth=2;" edge="1" parent="1" source="63">
                    <mxGeometry relative="1" as="geometry">
                        <mxPoint x="120" y="510" as="targetPoint"/>
                    </mxGeometry>
                </mxCell>
                <mxCell id="79" style="edgeStyle=none;rounded=0;orthogonalLoop=1;jettySize=auto;html=1;exitX=1;exitY=0.5;exitDx=0;exitDy=0;endArrow=none;endFill=0;fontSize=20;strokeColor=#000000;fontColor=#0F0F0F;strokeWidth=2;" edge="1" parent="1" source="63">
                    <mxGeometry relative="1" as="geometry">
                        <mxPoint x="130" y="530" as="targetPoint"/>
                    </mxGeometry>
                </mxCell>
                <mxCell id="134" style="edgeStyle=none;rounded=0;orthogonalLoop=1;jettySize=auto;html=1;exitX=0.667;exitY=0.974;exitDx=0;exitDy=0;endArrow=none;endFill=0;strokeColor=#000000;strokeWidth=2;fontSize=20;fontColor=#0F0F0F;exitPerimeter=0;" edge="1" parent="1" source="63">
                    <mxGeometry relative="1" as="geometry">
                        <mxPoint x="50" y="660" as="targetPoint"/>
                    </mxGeometry>
                </mxCell>
                <mxCell id="63" value="&amp;nbsp;N&lt;sub&gt;5&lt;/sub&gt;" style="ellipse;whiteSpace=wrap;html=1;aspect=fixed;fillColor=none;fontSize=20;strokeColor=#000000;fontColor=#0F0F0F;strokeWidth=2;" vertex="1" parent="1">
                    <mxGeometry x="10" y="560" width="60" height="60" as="geometry"/>
                </mxCell>
                <mxCell id="132" style="edgeStyle=none;rounded=0;orthogonalLoop=1;jettySize=auto;html=1;exitX=0.338;exitY=0.966;exitDx=0;exitDy=0;endArrow=none;endFill=0;strokeColor=#000000;strokeWidth=2;fontSize=20;fontColor=#0F0F0F;exitPerimeter=0;" edge="1" parent="1" source="64">
                    <mxGeometry relative="1" as="geometry">
                        <mxPoint x="-90" y="790" as="targetPoint"/>
                    </mxGeometry>
                </mxCell>
                <mxCell id="133" style="edgeStyle=none;rounded=0;orthogonalLoop=1;jettySize=auto;html=1;exitX=0.669;exitY=0.97;exitDx=0;exitDy=0;endArrow=none;endFill=0;strokeColor=#000000;strokeWidth=2;fontSize=20;fontColor=#0F0F0F;exitPerimeter=0;" edge="1" parent="1" source="64">
                    <mxGeometry relative="1" as="geometry">
                        <mxPoint x="-69.99999999999989" y="660" as="targetPoint"/>
                    </mxGeometry>
                </mxCell>
                <mxCell id="64" value="&amp;nbsp;N&lt;sub&gt;6&lt;/sub&gt;" style="ellipse;whiteSpace=wrap;html=1;aspect=fixed;fillColor=none;fontSize=20;strokeColor=#000000;fontColor=#0F0F0F;strokeWidth=2;" vertex="1" parent="1">
                    <mxGeometry x="-110" y="560" width="60" height="60" as="geometry"/>
                </mxCell>
                <mxCell id="72" value="" style="ellipse;whiteSpace=wrap;html=1;aspect=fixed;fillColor=#0A0A0A;fontSize=20;strokeWidth=2;strokeColor=#000000;fontColor=#0F0F0F;" vertex="1" parent="1">
                    <mxGeometry x="357" y="368" width="5" height="5" as="geometry"/>
                </mxCell>
                <mxCell id="73" value="" style="ellipse;whiteSpace=wrap;html=1;aspect=fixed;fillColor=#0A0A0A;fontSize=20;strokeWidth=2;strokeColor=#000000;fontColor=#0F0F0F;" vertex="1" parent="1">
                    <mxGeometry x="367" y="388" width="5" height="5" as="geometry"/>
                </mxCell>
                <mxCell id="80" value="" style="ellipse;whiteSpace=wrap;html=1;aspect=fixed;fillColor=#0A0A0A;fontSize=20;strokeWidth=2;strokeColor=#000000;fontColor=#0F0F0F;" vertex="1" parent="1">
                    <mxGeometry x="117" y="508" width="5" height="5" as="geometry"/>
                </mxCell>
                <mxCell id="82" value="" style="ellipse;whiteSpace=wrap;html=1;aspect=fixed;fillColor=#0A0A0A;fontSize=20;strokeWidth=2;strokeColor=#000000;fontColor=#0F0F0F;" vertex="1" parent="1">
                    <mxGeometry x="127" y="528" width="5" height="5" as="geometry"/>
                </mxCell>
                <mxCell id="85" value="" style="group;strokeColor=none;fontColor=#0F0F0F;strokeWidth=2;" vertex="1" connectable="0" parent="1">
                    <mxGeometry y="120" width="80" height="120" as="geometry"/>
                </mxCell>
                <mxCell id="86" style="edgeStyle=orthogonalEdgeStyle;rounded=0;orthogonalLoop=1;jettySize=auto;html=1;exitX=0.25;exitY=0;exitDx=0;exitDy=0;endArrow=none;endFill=0;fontSize=20;strokeColor=#000000;fontColor=#0F0F0F;strokeWidth=2;" edge="1" parent="85" source="88">
                    <mxGeometry relative="1" as="geometry">
                        <mxPoint x="20" as="targetPoint"/>
                    </mxGeometry>
                </mxCell>
                <mxCell id="87" style="edgeStyle=orthogonalEdgeStyle;rounded=0;orthogonalLoop=1;jettySize=auto;html=1;exitX=0.75;exitY=0;exitDx=0;exitDy=0;endArrow=none;endFill=0;fontSize=20;strokeColor=#000000;fontColor=#0F0F0F;strokeWidth=2;" edge="1" parent="85" source="88">
                    <mxGeometry relative="1" as="geometry">
                        <mxPoint x="60" as="targetPoint"/>
                    </mxGeometry>
                </mxCell>
                <mxCell id="88" value="PG&lt;sub&gt;4&lt;/sub&gt;" style="rounded=0;whiteSpace=wrap;html=1;fillColor=none;fontSize=20;strokeColor=#000000;fontColor=#0F0F0F;strokeWidth=2;" vertex="1" parent="85">
                    <mxGeometry y="40" width="80" height="40" as="geometry"/>
                </mxCell>
                <mxCell id="89" value="" style="group;strokeColor=none;fontColor=#0F0F0F;strokeWidth=2;" vertex="1" connectable="0" parent="1">
                    <mxGeometry x="-120" y="120" width="80" height="120" as="geometry"/>
                </mxCell>
                <mxCell id="90" style="edgeStyle=orthogonalEdgeStyle;rounded=0;orthogonalLoop=1;jettySize=auto;html=1;exitX=0.25;exitY=0;exitDx=0;exitDy=0;endArrow=none;endFill=0;fontSize=20;strokeColor=#000000;fontColor=#0F0F0F;strokeWidth=2;" edge="1" parent="89" source="92">
                    <mxGeometry relative="1" as="geometry">
                        <mxPoint x="20" as="targetPoint"/>
                    </mxGeometry>
                </mxCell>
                <mxCell id="91" style="edgeStyle=orthogonalEdgeStyle;rounded=0;orthogonalLoop=1;jettySize=auto;html=1;exitX=0.75;exitY=0;exitDx=0;exitDy=0;endArrow=none;endFill=0;fontSize=20;strokeColor=#000000;fontColor=#0F0F0F;strokeWidth=2;" edge="1" parent="89" source="92">
                    <mxGeometry relative="1" as="geometry">
                        <mxPoint x="60" as="targetPoint"/>
                    </mxGeometry>
                </mxCell>
                <mxCell id="92" value="PG&lt;span style=&quot;font-size: 16.6667px&quot;&gt;&lt;sub&gt;5&lt;/sub&gt;&lt;/span&gt;" style="rounded=0;whiteSpace=wrap;html=1;fillColor=none;fontSize=20;strokeColor=#000000;fontColor=#0F0F0F;strokeWidth=2;" vertex="1" parent="89">
                    <mxGeometry y="40" width="80" height="40" as="geometry"/>
                </mxCell>
                <mxCell id="93" value="N&lt;sub&gt;2&lt;/sub&gt;" style="ellipse;whiteSpace=wrap;html=1;aspect=fixed;fillColor=none;fontSize=20;strokeColor=#000000;fontColor=#0F0F0F;strokeWidth=2;" vertex="1" parent="1">
                    <mxGeometry x="-110" y="280" width="60" height="60" as="geometry"/>
                </mxCell>
                <mxCell id="94" style="edgeStyle=orthogonalEdgeStyle;rounded=0;orthogonalLoop=1;jettySize=auto;html=1;exitX=0.25;exitY=1;exitDx=0;exitDy=0;fontSize=20;endArrow=none;endFill=0;strokeColor=#000000;fontColor=#0F0F0F;strokeWidth=2;" edge="1" parent="1" source="92" target="93">
                    <mxGeometry relative="1" as="geometry">
                        <mxPoint x="-100" y="240" as="targetPoint"/>
                        <Array as="points">
                            <mxPoint x="-90" y="200"/>
                        </Array>
                    </mxGeometry>
                </mxCell>
                <mxCell id="95" style="edgeStyle=orthogonalEdgeStyle;rounded=0;orthogonalLoop=1;jettySize=auto;html=1;exitX=0.75;exitY=1;exitDx=0;exitDy=0;endArrow=none;endFill=0;fontSize=20;strokeColor=#000000;fontColor=#0F0F0F;strokeWidth=2;" edge="1" parent="1" source="92" target="93">
                    <mxGeometry relative="1" as="geometry">
                        <mxPoint x="-59.888888888888914" y="240" as="targetPoint"/>
                        <Array as="points">
                            <mxPoint x="-70" y="200"/>
                        </Array>
                    </mxGeometry>
                </mxCell>
                <mxCell id="96" style="rounded=0;orthogonalLoop=1;jettySize=auto;html=1;exitX=0.25;exitY=1;exitDx=0;exitDy=0;fontSize=20;endArrow=none;endFill=0;entryX=1;entryY=0;entryDx=0;entryDy=0;strokeColor=#000000;fontColor=#0F0F0F;strokeWidth=2;" edge="1" parent="1" source="88" target="93">
                    <mxGeometry relative="1" as="geometry">
                        <mxPoint x="20" y="240" as="targetPoint"/>
                        <Array as="points">
                            <mxPoint x="30" y="200"/>
                            <mxPoint x="30" y="230"/>
                        </Array>
                    </mxGeometry>
                </mxCell>
                <mxCell id="97" style="rounded=0;orthogonalLoop=1;jettySize=auto;html=1;exitX=0.624;exitY=1.032;exitDx=0;exitDy=0;endArrow=none;endFill=0;fontSize=20;entryX=1;entryY=0.5;entryDx=0;entryDy=0;exitPerimeter=0;strokeColor=#000000;fontColor=#0F0F0F;strokeWidth=2;" edge="1" parent="1" source="88" target="93">
                    <mxGeometry relative="1" as="geometry">
                        <mxPoint x="60.111111111111086" y="240" as="targetPoint"/>
                        <Array as="points">
                            <mxPoint x="50" y="240"/>
                        </Array>
                    </mxGeometry>
                </mxCell>
                <mxCell id="98" value="" style="endArrow=none;html=1;fontSize=20;exitX=0.333;exitY=0.033;exitDx=0;exitDy=0;exitPerimeter=0;strokeColor=#000000;fontColor=#0F0F0F;strokeWidth=2;" edge="1" parent="1" source="63">
                    <mxGeometry width="50" height="50" relative="1" as="geometry">
                        <mxPoint x="30" y="565" as="sourcePoint"/>
                        <mxPoint x="30" y="230" as="targetPoint"/>
                    </mxGeometry>
                </mxCell>
                <mxCell id="99" value="" style="endArrow=none;html=1;fontSize=20;exitX=0.668;exitY=0.029;exitDx=0;exitDy=0;exitPerimeter=0;strokeColor=#000000;fontColor=#0F0F0F;strokeWidth=2;" edge="1" parent="1" source="63">
                    <mxGeometry width="50" height="50" relative="1" as="geometry">
                        <mxPoint x="50" y="560" as="sourcePoint"/>
                        <mxPoint x="50" y="239.9999999999999" as="targetPoint"/>
                    </mxGeometry>
                </mxCell>
                <mxCell id="100" value="" style="ellipse;whiteSpace=wrap;html=1;aspect=fixed;fillColor=#0A0A0A;fontSize=20;strokeWidth=2;strokeColor=#000000;fontColor=#0F0F0F;" vertex="1" parent="1">
                    <mxGeometry x="47" y="238" width="5" height="5" as="geometry"/>
                </mxCell>
                <mxCell id="102" value="" style="ellipse;whiteSpace=wrap;html=1;aspect=fixed;fillColor=#0A0A0A;fontSize=20;strokeWidth=2;strokeColor=#000000;fontColor=#0F0F0F;" vertex="1" parent="1">
                    <mxGeometry x="27" y="228" width="5" height="5" as="geometry"/>
                </mxCell>
                <mxCell id="105" value="" style="endArrow=none;html=1;fontSize=20;exitX=0.332;exitY=0.034;exitDx=0;exitDy=0;exitPerimeter=0;strokeColor=#000000;fontColor=#0F0F0F;strokeWidth=2;" edge="1" parent="1" source="60">
                    <mxGeometry width="50" height="50" relative="1" as="geometry">
                        <mxPoint x="270" y="410" as="sourcePoint"/>
                        <mxPoint x="270" y="220" as="targetPoint"/>
                    </mxGeometry>
                </mxCell>
                <mxCell id="106" value="" style="endArrow=none;html=1;fontSize=20;exitX=0.666;exitY=0.025;exitDx=0;exitDy=0;exitPerimeter=0;strokeColor=#000000;fontColor=#0F0F0F;strokeWidth=2;" edge="1" parent="1" source="60">
                    <mxGeometry width="50" height="50" relative="1" as="geometry">
                        <mxPoint x="290" y="418" as="sourcePoint"/>
                        <mxPoint x="290" y="228" as="targetPoint"/>
                    </mxGeometry>
                </mxCell>
                <mxCell id="107" value="" style="ellipse;whiteSpace=wrap;html=1;aspect=fixed;fillColor=#0A0A0A;fontSize=20;strokeWidth=2;strokeColor=#000000;fontColor=#0F0F0F;" vertex="1" parent="1">
                    <mxGeometry x="287" y="238" width="5" height="5" as="geometry"/>
                </mxCell>
                <mxCell id="108" value="" style="ellipse;whiteSpace=wrap;html=1;aspect=fixed;fillColor=#0A0A0A;fontSize=20;strokeWidth=2;strokeColor=#000000;fontColor=#0F0F0F;" vertex="1" parent="1">
                    <mxGeometry x="267" y="228" width="5" height="5" as="geometry"/>
                </mxCell>
                <mxCell id="109" value="" style="endArrow=none;html=1;fontSize=20;strokeColor=#0A0A0A;strokeWidth=2;fontColor=#0F0F0F;rounded=0;" edge="1" parent="1">
                    <mxGeometry width="50" height="50" relative="1" as="geometry">
                        <mxPoint x="560" y="790" as="sourcePoint"/>
                        <mxPoint x="530" y="240" as="targetPoint"/>
                        <Array as="points">
                            <mxPoint x="560" y="240"/>
                        </Array>
                    </mxGeometry>
                </mxCell>
                <mxCell id="110" value="" style="endArrow=none;html=1;fontSize=20;exitX=0;exitY=0.25;exitDx=0;exitDy=0;exitPerimeter=0;strokeColor=#0A0A0A;strokeWidth=2;fontColor=#0F0F0F;" edge="1" parent="1" source="113">
                    <mxGeometry width="50" height="50" relative="1" as="geometry">
                        <mxPoint x="510.385" y="606.5225" as="sourcePoint"/>
                        <mxPoint x="510" y="228" as="targetPoint"/>
                    </mxGeometry>
                </mxCell>
                <mxCell id="111" value="" style="endArrow=none;html=1;fontSize=20;entryX=1;entryY=0.5;entryDx=0;entryDy=0;rounded=0;strokeColor=#000000;fontColor=#0F0F0F;strokeWidth=2;exitX=0;exitY=0.75;exitDx=0;exitDy=0;exitPerimeter=0;" edge="1" parent="1" source="113" target="4">
                    <mxGeometry width="50" height="50" relative="1" as="geometry">
                        <mxPoint x="460" y="592" as="sourcePoint"/>
                        <mxPoint x="460" y="180" as="targetPoint"/>
                        <Array as="points">
                            <mxPoint x="460" y="650"/>
                            <mxPoint x="460" y="180"/>
                        </Array>
                    </mxGeometry>
                </mxCell>
                <mxCell id="137" style="edgeStyle=none;rounded=0;orthogonalLoop=1;jettySize=auto;html=1;exitX=1;exitY=0.5;exitDx=0;exitDy=0;exitPerimeter=0;endArrow=none;endFill=0;strokeColor=#000000;strokeWidth=2;fontSize=20;fontColor=#0F0F0F;" edge="1" parent="1" source="113">
                    <mxGeometry relative="1" as="geometry">
                        <mxPoint x="490" y="790" as="targetPoint"/>
                    </mxGeometry>
                </mxCell>
                <mxCell id="113" value="" style="verticalLabelPosition=bottom;shadow=0;dashed=0;align=center;html=1;verticalAlign=top;shape=mxgraph.electrical.logic_gates.logic_gate;operation=xor;strokeColor=#000000;strokeWidth=2;fillColor=none;fontSize=20;fontColor=#0F0F0F;rotation=90;" vertex="1" parent="1">
                    <mxGeometry x="440" y="670" width="100" height="60" as="geometry"/>
                </mxCell>
                <mxCell id="114" value="" style="endArrow=none;html=1;fontSize=20;entryX=1;entryY=0.5;entryDx=0;entryDy=0;rounded=0;strokeColor=#000000;fontColor=#0F0F0F;strokeWidth=2;exitX=0;exitY=0.75;exitDx=0;exitDy=0;exitPerimeter=0;" edge="1" parent="1" source="115">
                    <mxGeometry width="50" height="50" relative="1" as="geometry">
                        <mxPoint x="339.5" y="592" as="sourcePoint"/>
                        <mxPoint x="319.5" y="180" as="targetPoint"/>
                        <Array as="points">
                            <mxPoint x="340" y="650"/>
                            <mxPoint x="339.5" y="180"/>
                        </Array>
                    </mxGeometry>
                </mxCell>
                <mxCell id="135" style="edgeStyle=none;rounded=0;orthogonalLoop=1;jettySize=auto;html=1;exitX=0;exitY=0.25;exitDx=0;exitDy=0;exitPerimeter=0;endArrow=none;endFill=0;strokeColor=#000000;strokeWidth=2;fontSize=20;fontColor=#0F0F0F;" edge="1" parent="1" source="115">
                    <mxGeometry relative="1" as="geometry">
                        <mxPoint x="384.5999999999999" y="370" as="targetPoint"/>
                    </mxGeometry>
                </mxCell>
                <mxCell id="138" style="edgeStyle=none;rounded=0;orthogonalLoop=1;jettySize=auto;html=1;exitX=1;exitY=0.5;exitDx=0;exitDy=0;exitPerimeter=0;endArrow=none;endFill=0;strokeColor=#000000;strokeWidth=2;fontSize=20;fontColor=#0F0F0F;" edge="1" parent="1" source="115">
                    <mxGeometry relative="1" as="geometry">
                        <mxPoint x="369.7142857142858" y="790" as="targetPoint"/>
                    </mxGeometry>
                </mxCell>
                <mxCell id="115" value="" style="verticalLabelPosition=bottom;shadow=0;dashed=0;align=center;html=1;verticalAlign=top;shape=mxgraph.electrical.logic_gates.logic_gate;operation=xor;strokeColor=#000000;strokeWidth=2;fillColor=none;fontSize=20;fontColor=#0F0F0F;rotation=90;" vertex="1" parent="1">
                    <mxGeometry x="319.5" y="670" width="100" height="60" as="geometry"/>
                </mxCell>
                <mxCell id="116" value="" style="endArrow=none;html=1;fontSize=20;entryX=1;entryY=0.5;entryDx=0;entryDy=0;rounded=0;strokeColor=#000000;fontColor=#0F0F0F;strokeWidth=2;exitX=0;exitY=0.75;exitDx=0;exitDy=0;exitPerimeter=0;" edge="1" parent="1" source="117">
                    <mxGeometry width="50" height="50" relative="1" as="geometry">
                        <mxPoint x="220" y="592" as="sourcePoint"/>
                        <mxPoint x="200" y="180" as="targetPoint"/>
                        <Array as="points">
                            <mxPoint x="220" y="650"/>
                            <mxPoint x="220" y="180"/>
                        </Array>
                    </mxGeometry>
                </mxCell>
                <mxCell id="139" style="edgeStyle=none;rounded=0;orthogonalLoop=1;jettySize=auto;html=1;exitX=1;exitY=0.5;exitDx=0;exitDy=0;exitPerimeter=0;endArrow=none;endFill=0;strokeColor=#000000;strokeWidth=2;fontSize=20;fontColor=#0F0F0F;" edge="1" parent="1" source="117">
                    <mxGeometry relative="1" as="geometry">
                        <mxPoint x="250" y="790" as="targetPoint"/>
                    </mxGeometry>
                </mxCell>
                <mxCell id="117" value="" style="verticalLabelPosition=bottom;shadow=0;dashed=0;align=center;html=1;verticalAlign=top;shape=mxgraph.electrical.logic_gates.logic_gate;operation=xor;strokeColor=#000000;strokeWidth=2;fillColor=none;fontSize=20;fontColor=#0F0F0F;rotation=90;" vertex="1" parent="1">
                    <mxGeometry x="200" y="670" width="100" height="60" as="geometry"/>
                </mxCell>
                <mxCell id="118" value="" style="endArrow=none;html=1;fontSize=20;entryX=1;entryY=0.5;entryDx=0;entryDy=0;rounded=0;strokeColor=#000000;fontColor=#0F0F0F;strokeWidth=2;exitX=0;exitY=0.75;exitDx=0;exitDy=0;exitPerimeter=0;" edge="1" parent="1" source="119">
                    <mxGeometry width="50" height="50" relative="1" as="geometry">
                        <mxPoint x="99.5" y="592" as="sourcePoint"/>
                        <mxPoint x="79.5" y="180" as="targetPoint"/>
                        <Array as="points">
                            <mxPoint x="100" y="650"/>
                            <mxPoint x="99.5" y="180"/>
                        </Array>
                    </mxGeometry>
                </mxCell>
                <mxCell id="140" style="edgeStyle=none;rounded=0;orthogonalLoop=1;jettySize=auto;html=1;exitX=1;exitY=0.5;exitDx=0;exitDy=0;exitPerimeter=0;endArrow=none;endFill=0;strokeColor=#000000;strokeWidth=2;fontSize=20;fontColor=#0F0F0F;" edge="1" parent="1" source="119">
                    <mxGeometry relative="1" as="geometry">
                        <mxPoint x="129.71428571428578" y="790" as="targetPoint"/>
                    </mxGeometry>
                </mxCell>
                <mxCell id="119" value="" style="verticalLabelPosition=bottom;shadow=0;dashed=0;align=center;html=1;verticalAlign=top;shape=mxgraph.electrical.logic_gates.logic_gate;operation=xor;strokeColor=#000000;strokeWidth=2;fillColor=none;fontSize=20;fontColor=#0F0F0F;rotation=90;" vertex="1" parent="1">
                    <mxGeometry x="79.5" y="670" width="100" height="60" as="geometry"/>
                </mxCell>
                <mxCell id="120" value="" style="endArrow=none;html=1;fontSize=20;entryX=1;entryY=0.5;entryDx=0;entryDy=0;rounded=0;strokeColor=#000000;fontColor=#0F0F0F;strokeWidth=2;exitX=0;exitY=0.75;exitDx=0;exitDy=0;exitPerimeter=0;" edge="1" parent="1" source="121">
                    <mxGeometry width="50" height="50" relative="1" as="geometry">
                        <mxPoint x="-20" y="592" as="sourcePoint"/>
                        <mxPoint x="-40" y="180" as="targetPoint"/>
                        <Array as="points">
                            <mxPoint x="-20" y="650"/>
                            <mxPoint x="-20" y="180"/>
                        </Array>
                    </mxGeometry>
                </mxCell>
                <mxCell id="129" style="edgeStyle=none;rounded=0;orthogonalLoop=1;jettySize=auto;html=1;exitX=0;exitY=0.25;exitDx=0;exitDy=0;exitPerimeter=0;entryX=0.331;entryY=0.966;entryDx=0;entryDy=0;entryPerimeter=0;endArrow=none;endFill=0;strokeColor=#000000;strokeWidth=2;fontSize=20;fontColor=#0F0F0F;" edge="1" parent="1" source="121" target="63">
                    <mxGeometry relative="1" as="geometry"/>
                </mxCell>
                <mxCell id="141" style="edgeStyle=none;rounded=0;orthogonalLoop=1;jettySize=auto;html=1;exitX=1;exitY=0.5;exitDx=0;exitDy=0;exitPerimeter=0;endArrow=none;endFill=0;strokeColor=#000000;strokeWidth=2;fontSize=20;fontColor=#0F0F0F;" edge="1" parent="1" source="121">
                    <mxGeometry relative="1" as="geometry">
                        <mxPoint x="10" y="790" as="targetPoint"/>
                    </mxGeometry>
                </mxCell>
                <mxCell id="121" value="" style="verticalLabelPosition=bottom;shadow=0;dashed=0;align=center;html=1;verticalAlign=top;shape=mxgraph.electrical.logic_gates.logic_gate;operation=xor;strokeColor=#000000;strokeWidth=2;fillColor=none;fontSize=20;fontColor=#0F0F0F;rotation=90;" vertex="1" parent="1">
                    <mxGeometry x="-40" y="670" width="100" height="60" as="geometry"/>
                </mxCell>
                <mxCell id="122" value="" style="ellipse;whiteSpace=wrap;html=1;aspect=fixed;fillColor=#0A0A0A;fontSize=20;strokeWidth=2;strokeColor=#000000;fontColor=#0F0F0F;" vertex="1" parent="1">
                    <mxGeometry x="527" y="238" width="5" height="5" as="geometry"/>
                </mxCell>
                <mxCell id="124" value="" style="ellipse;whiteSpace=wrap;html=1;aspect=fixed;fillColor=#0A0A0A;fontSize=20;strokeWidth=2;strokeColor=#000000;fontColor=#0F0F0F;" vertex="1" parent="1">
                    <mxGeometry x="507" y="228" width="5" height="5" as="geometry"/>
                </mxCell>
                <mxCell id="127" style="edgeStyle=none;rounded=0;orthogonalLoop=1;jettySize=auto;html=1;exitX=0.678;exitY=0.974;exitDx=0;exitDy=0;endArrow=none;endFill=0;strokeColor=#000000;strokeWidth=2;fontSize=20;fontColor=#0F0F0F;exitPerimeter=0;entryX=0;entryY=0.25;entryDx=0;entryDy=0;entryPerimeter=0;" edge="1" parent="1" target="119">
                    <mxGeometry relative="1" as="geometry">
                        <mxPoint x="150.32" y="551.28" as="targetPoint"/>
                        <mxPoint x="150.00000000000006" y="509.72" as="sourcePoint"/>
                    </mxGeometry>
                </mxCell>
                <mxCell id="128" value="" style="ellipse;whiteSpace=wrap;html=1;aspect=fixed;fillColor=#0A0A0A;fontSize=20;strokeWidth=2;strokeColor=#000000;fontColor=#0F0F0F;" vertex="1" parent="1">
                    <mxGeometry x="147" y="508" width="5" height="5" as="geometry"/>
                </mxCell>
                <mxCell id="136" value="" style="ellipse;whiteSpace=wrap;html=1;aspect=fixed;fillColor=#0A0A0A;fontSize=20;strokeWidth=2;strokeColor=#000000;fontColor=#0F0F0F;" vertex="1" parent="1">
                    <mxGeometry x="382" y="368" width="5" height="5" as="geometry"/>
                </mxCell>
                <mxCell id="143" value="x&lt;sub&gt;0&lt;/sub&gt;" style="text;html=1;strokeColor=none;fillColor=none;align=center;verticalAlign=middle;whiteSpace=wrap;rounded=0;fontSize=20;fontColor=#0F0F0F;" vertex="1" parent="1">
                    <mxGeometry x="490" y="90" width="18" height="30" as="geometry"/>
                </mxCell>
                <mxCell id="144" value="y&lt;sub&gt;0&lt;/sub&gt;" style="text;html=1;strokeColor=none;fillColor=none;align=center;verticalAlign=middle;whiteSpace=wrap;rounded=0;fontSize=20;fontColor=#0F0F0F;" vertex="1" parent="1">
                    <mxGeometry x="514" y="90" width="18" height="30" as="geometry"/>
                </mxCell>
                <mxCell id="145" value="c_in" style="text;html=1;strokeColor=none;fillColor=none;align=center;verticalAlign=middle;whiteSpace=wrap;rounded=0;fontSize=20;fontColor=#0F0F0F;" vertex="1" parent="1">
                    <mxGeometry x="550" y="90" width="40" height="30" as="geometry"/>
                </mxCell>
                <mxCell id="146" value="x&lt;sub&gt;1&lt;/sub&gt;" style="text;html=1;strokeColor=none;fillColor=none;align=center;verticalAlign=middle;whiteSpace=wrap;rounded=0;fontSize=20;fontColor=#0F0F0F;" vertex="1" parent="1">
                    <mxGeometry x="370" y="90" width="18" height="30" as="geometry"/>
                </mxCell>
                <mxCell id="147" value="y&lt;sub&gt;1&lt;/sub&gt;" style="text;html=1;strokeColor=none;fillColor=none;align=center;verticalAlign=middle;whiteSpace=wrap;rounded=0;fontSize=20;fontColor=#0F0F0F;" vertex="1" parent="1">
                    <mxGeometry x="412" y="90" width="18" height="30" as="geometry"/>
                </mxCell>
                <mxCell id="148" value="x&lt;sub&gt;2&lt;/sub&gt;" style="text;html=1;strokeColor=none;fillColor=none;align=center;verticalAlign=middle;whiteSpace=wrap;rounded=0;fontSize=20;fontColor=#0F0F0F;" vertex="1" parent="1">
                    <mxGeometry x="250" y="90" width="18" height="30" as="geometry"/>
                </mxCell>
                <mxCell id="149" value="y&lt;sub&gt;2&lt;/sub&gt;" style="text;html=1;strokeColor=none;fillColor=none;align=center;verticalAlign=middle;whiteSpace=wrap;rounded=0;fontSize=20;fontColor=#0F0F0F;" vertex="1" parent="1">
                    <mxGeometry x="292" y="90" width="18" height="30" as="geometry"/>
                </mxCell>
                <mxCell id="150" value="x&lt;sub&gt;3&lt;/sub&gt;" style="text;html=1;strokeColor=none;fillColor=none;align=center;verticalAlign=middle;whiteSpace=wrap;rounded=0;fontSize=20;fontColor=#0F0F0F;" vertex="1" parent="1">
                    <mxGeometry x="130" y="90" width="18" height="30" as="geometry"/>
                </mxCell>
                <mxCell id="151" value="y&lt;sub&gt;3&lt;/sub&gt;" style="text;html=1;strokeColor=none;fillColor=none;align=center;verticalAlign=middle;whiteSpace=wrap;rounded=0;fontSize=20;fontColor=#0F0F0F;" vertex="1" parent="1">
                    <mxGeometry x="172" y="90" width="18" height="30" as="geometry"/>
                </mxCell>
                <mxCell id="152" value="x&lt;sub&gt;4&lt;/sub&gt;" style="text;html=1;strokeColor=none;fillColor=none;align=center;verticalAlign=middle;whiteSpace=wrap;rounded=0;fontSize=20;fontColor=#0F0F0F;" vertex="1" parent="1">
                    <mxGeometry x="10" y="90" width="18" height="30" as="geometry"/>
                </mxCell>
                <mxCell id="153" value="y&lt;sub&gt;4&lt;/sub&gt;" style="text;html=1;strokeColor=none;fillColor=none;align=center;verticalAlign=middle;whiteSpace=wrap;rounded=0;fontSize=20;fontColor=#0F0F0F;" vertex="1" parent="1">
                    <mxGeometry x="52" y="90" width="18" height="30" as="geometry"/>
                </mxCell>
                <mxCell id="154" value="x&lt;sub&gt;5&lt;/sub&gt;" style="text;html=1;strokeColor=none;fillColor=none;align=center;verticalAlign=middle;whiteSpace=wrap;rounded=0;fontSize=20;fontColor=#0F0F0F;" vertex="1" parent="1">
                    <mxGeometry x="-110" y="90" width="18" height="30" as="geometry"/>
                </mxCell>
                <mxCell id="155" value="y&lt;sub&gt;5&lt;/sub&gt;" style="text;html=1;strokeColor=none;fillColor=none;align=center;verticalAlign=middle;whiteSpace=wrap;rounded=0;fontSize=20;fontColor=#0F0F0F;" vertex="1" parent="1">
                    <mxGeometry x="-68" y="90" width="18" height="30" as="geometry"/>
                </mxCell>
                <mxCell id="156" value="s&lt;sub&gt;0&lt;/sub&gt;" style="text;html=1;strokeColor=none;fillColor=none;align=center;verticalAlign=middle;whiteSpace=wrap;rounded=0;fontSize=20;fontColor=#0F0F0F;" vertex="1" parent="1">
                    <mxGeometry x="550" y="790" width="18" height="30" as="geometry"/>
                </mxCell>
                <mxCell id="157" value="s&lt;sub&gt;1&lt;/sub&gt;" style="text;html=1;strokeColor=none;fillColor=none;align=center;verticalAlign=middle;whiteSpace=wrap;rounded=0;fontSize=20;fontColor=#0F0F0F;" vertex="1" parent="1">
                    <mxGeometry x="480" y="790" width="18" height="30" as="geometry"/>
                </mxCell>
                <mxCell id="158" value="s&lt;sub&gt;2&lt;/sub&gt;" style="text;html=1;strokeColor=none;fillColor=none;align=center;verticalAlign=middle;whiteSpace=wrap;rounded=0;fontSize=20;fontColor=#0F0F0F;" vertex="1" parent="1">
                    <mxGeometry x="360.5" y="790" width="18" height="30" as="geometry"/>
                </mxCell>
                <mxCell id="159" value="s&lt;sub&gt;3&lt;/sub&gt;" style="text;html=1;strokeColor=none;fillColor=none;align=center;verticalAlign=middle;whiteSpace=wrap;rounded=0;fontSize=20;fontColor=#0F0F0F;" vertex="1" parent="1">
                    <mxGeometry x="239.5" y="790" width="18" height="30" as="geometry"/>
                </mxCell>
                <mxCell id="160" value="s&lt;sub&gt;4&lt;/sub&gt;" style="text;html=1;strokeColor=none;fillColor=none;align=center;verticalAlign=middle;whiteSpace=wrap;rounded=0;fontSize=20;fontColor=#0F0F0F;" vertex="1" parent="1">
                    <mxGeometry x="120" y="790" width="18" height="30" as="geometry"/>
                </mxCell>
                <mxCell id="161" value="s&lt;sub&gt;5&lt;/sub&gt;" style="text;html=1;strokeColor=none;fillColor=none;align=center;verticalAlign=middle;whiteSpace=wrap;rounded=0;fontSize=20;fontColor=#0F0F0F;" vertex="1" parent="1">
                    <mxGeometry x="1" y="790" width="18" height="30" as="geometry"/>
                </mxCell>
                <mxCell id="162" value="s&lt;sub&gt;6&lt;/sub&gt;" style="text;html=1;strokeColor=none;fillColor=none;align=center;verticalAlign=middle;whiteSpace=wrap;rounded=0;fontSize=20;fontColor=#0F0F0F;" vertex="1" parent="1">
                    <mxGeometry x="-100" y="790" width="18" height="30" as="geometry"/>
                </mxCell>
            </root>
        </mxGraphModel>
    </diagram>
</mxfile>